# xmcd
#
# Track frame offsets:
#	182
#	17557
#	31080
#	44797
#	61200
#	73727
#	91970
#	105360
#	118562
#	133550
#	148182
#	162695
#	175905
#	191190
#	207037
#	227252
#	239065
#	252462
#	266695
#	283327
#	299985
#	313175
#
# Disc length: 4403
#
# Revision: 1
# Processed by: cddbd v1.5.1PL0 Copyright (c) Steve Scherf et al.
# Submitted via: dBpowerAMP V4.0
# Normalized: r0:TRMNUM
#
DISCID=5c113116
DTITLE=Felipe e Falcao - Dose Dupla - Felipe e Falcao
DYEAR=1900
DGENRE=Sertaneja
TTITLE0=Deixa eu te amar por favor - 3,51
TTITLE1=Quebra o pau na cama - 3,00
TTITLE2=O saco ficou de fora - 3,02
TTITLE3=Sou mai voce do que eu - 3,38
TTITLE4=Mais um me - 2,47
TTITLE5=Vai por ai - 4,03
TTITLE6=Esconderam de mim - 2,58
TTITLE7=Anjo - 2,56
TTITLE8=A dor da solidao - 3,19
TTITLE9=Coracao bandido - 3,15
TTITLE10=Saudade sua - 3,13
TTITLE11=1 x 0 pra voce - 2,56
TTITLE12=Eu quero essa mulher comigo - 3,23
TTITLE13=Horario nobre - 3,31
TTITLE14=Amar demais tambem faz mal - 4,29
TTITLE15=Ela ja estava no meu travesseiro - 2,37
TTITLE16=Noventa por cento mais mulher - 2,58
TTITLE17=Colegas de pensao - 3,09
TTITLE18=Eu quero ter voce comigo - 3,41
TTITLE19=Beijo acucarado - 3,42
TTITLE20=Perua - 2,55
TTITLE21=Sonho real - 3,47
EXTD=
EXTT0=
EXTT1=
EXTT2=
EXTT3=
EXTT4=
EXTT5=
EXTT6=
EXTT7=
EXTT8=
EXTT9=
EXTT10=
EXTT11=
EXTT12=
EXTT13=
EXTT14=
EXTT15=
EXTT16=
EXTT17=
EXTT18=
EXTT19=
EXTT20=
EXTT21=
PLAYORDER=
